<svg xmlns="http://www.w3.org/2000/svg" width="640" height="360" viewBox="0 0 640 360">
<rect width="640" height="360" fill="#6ea95d"/>
<rect y="280" width="640" height="80" fill="#5a8b4b"/>
<path d="M0 210 C120 170, 220 180, 310 210 S500 260, 640 225 L640 360 L0 360 Z" fill="#c7b07a"/>
<path d="M360 0 C430 40, 470 110, 455 170 C440 225, 470 285, 560 325 L640 360 L640 0 Z" fill="#4b82c3"/>
<circle cx="540" cy="72" r="28" fill="#f3e39a"/>
<rect x="70" y="64" width="150" height="96" rx="12" fill="#87bf75"/>
<rect x="390" y="76" width="120" height="84" rx="12" fill="#87bf75"/>
<rect x="452" y="204" width="110" height="90" rx="12" fill="#87bf75"/>
<circle cx="118" cy="88" r="20" fill="#3f6f38"/>
<rect x="113" y="88" width="10" height="28" fill="#6b4a2e"/>
<circle cx="486" cy="108" r="18" fill="#3f6f38"/>
<rect x="481" y="108" width="10" height="24" fill="#6b4a2e"/>
<circle cx="504" cy="242" r="18" fill="#3f6f38"/>
<rect x="499" y="242" width="10" height="24" fill="#6b4a2e"/>
<rect x="152" y="102" width="56" height="34" rx="3" fill="#c98b56"/>
<polygon points="146,104 180,80 214,104" fill="#92483f"/>
<rect x="170" y="116" width="12" height="20" fill="#6b4a2e"/>
<rect x="422" y="236" width="54" height="48" rx="6" fill="#2e2e35"/>
<ellipse cx="449" cy="238" rx="38" ry="16" fill="#1f1f24"/>
<rect x="278" y="118" width="84" height="98" rx="10" fill="#8a6a44"/>
<rect x="296" y="136" width="48" height="64" rx="4" fill="#684d2f"/>
<path d="M290 118 L350 118 L362 146 L278 146 Z" fill="#4d9a46"/>
</svg>
